# xmcd
#
# Track frame offsets: 
#        150
#        12503
#        25558
#        39284
#        53075
#        66684
#        79079
#        90297
#        104466
#        118813
#        130472
#        144834
#        157341
#        170286
#        183329
#        197248
#        209830
#        221409
#        233531
#        246393
#        261061
#
# Disc length: 3640 seconds
#
# Revision: 2
# Processed by: cddbd v1.5.2PL0 Copyright (c) Steve Scherf et al.
# Submitted via: ExactAudioCopy v0.95b4
#
DISCID=2d0e3615
DTITLE=Various Artist - The Roots of Elvis Presley
DYEAR=1900
DGENRE=Roots
TTITLE0=Leon Payne/I Love You Because
TTITLE1=Arthur Crudup/That's All Right
TTITLE2=Bill Monroe/Blue Moon Of Kentucky
TTITLE3=Lonnie Johnson/Tomorrow Night
TTITLE4=The Shelton Brothers/Just Because
TTITLE5=Wynonie Harris/Good Rockin' Tonight
TTITLE6=Arthur Crudup/My Baby Left Me
TTITLE7=Sister Rosetta Tharpe/Down By The Riverside
TTITLE8=Bill Monroes/Little Cabin On The Hill
TTITLE9=The Golden Gate Quartet/Precious Lord
TTITLE10=Ivory Joe Hunter/I Need You So
TTITLE11=Arthur Crudup/So Glad You're Mine
TTITLE12=Jimmie Rodgers/Frankie And Johnny
TTITLE13=Hank Snow/I'm Movin' On
TTITLE14=Bob Wills/Faded Love
TTITLE15=Hank Williams/I'm So Lonesome I Could Cry
TTITLE16=Wea Bea Booze/See See Rider
TTITLE17=The Shelton Brotheers/Aura Lee
TTITLE18=Johnnie Lee Wills/Milk Cow Blues
TTITLE19=Red Foley/Old Shep
TTITLE20=Gene Autry/Blueberry Hill
EXTD=
EXTT0=
EXTT1=
EXTT2=
EXTT3=
EXTT4=
EXTT5=
EXTT6=
EXTT7=
EXTT8=
EXTT9=
EXTT10=
EXTT11=
EXTT12=
EXTT13=
EXTT14=
EXTT15=
EXTT16=
EXTT17=
EXTT18=
EXTT19=
EXTT20=
PLAYORDER=
